<svg width="23" height="20" viewBox="0 0 23 20" fill="none" xmlns="http://www.w3.org/2000/svg">
<path d="M22.6287 13.1845C22.6287 16.5035 19.9381 19.1941 16.6191 19.1941L7.60467 19.1941C6.68272 19.1941 5.93534 18.4467 5.93534 17.5248L5.93534 6.17329C5.93534 4.3294 7.43011 2.83463 9.274 2.83463L20.9593 2.83463C21.8813 2.83463 22.6287 3.58202 22.6287 4.50396L22.6287 13.1845Z" fill="#E8F5E9"/>
<path d="M10.3797 8.39182C10.2993 8.39182 10.2246 8.36972 10.1583 8.33416V8.33511C10.1583 8.46159 10.1092 8.58037 10.02 8.66933C9.93078 8.75853 9.81209 8.80769 9.68575 8.80769C9.60419 8.80769 9.5286 8.78504 9.46157 8.74854C9.45481 8.86425 9.40856 8.9724 9.32605 9.055C9.23685 9.1442 9.11816 9.19336 8.99174 9.19336C8.74058 9.19336 8.53661 8.99593 8.52191 8.74846C8.4442 8.79047 8.35634 8.81249 8.26572 8.80667C8.01864 8.79047 7.82515 8.57699 7.82515 8.32055V6.19494L7.58311 6.61427C7.49092 6.77465 7.31836 6.87423 7.13256 6.87423C7.04202 6.87423 6.95259 6.85047 6.87338 6.80509C6.77474 6.74791 6.70419 6.65611 6.67484 6.54629C6.64535 6.43641 6.66061 6.32149 6.71763 6.223C6.71771 6.223 7.50956 4.85175 7.55787 4.76751C7.56361 4.75485 7.57998 4.71812 7.5939 4.68681C7.60719 4.65692 7.6186 4.62625 7.62953 4.59541C7.86833 3.92124 8.45962 3.50246 9.17273 3.50246C10.0988 3.50246 10.8522 4.3194 10.8522 5.32357L10.8522 7.91916C10.8522 8.04549 10.8032 8.16418 10.714 8.25347C10.6248 8.34267 10.5061 8.39183 10.3797 8.39183L10.3797 8.39182ZM9.17274 3.75358C8.55998 3.75358 8.07159 4.09968 7.86622 4.67939C7.85309 4.7162 7.8394 4.75302 7.82343 4.78888C7.7771 4.89279 7.7771 4.89279 7.76404 4.90774L7.76231 4.90624C7.69766 5.02824 7.50557 5.36088 6.93507 6.34868C6.91163 6.38919 6.90541 6.43623 6.91737 6.48122C6.92948 6.52621 6.95851 6.56412 6.9987 6.58733C7.12345 6.65899 7.2943 6.61273 7.36541 6.48885L7.842 5.66371C7.87047 5.61455 7.92805 5.59041 7.98327 5.60535C8.03817 5.62006 8.07632 5.66985 8.07632 5.72664V8.32063C8.07632 8.44302 8.16866 8.54865 8.28218 8.55612C8.34762 8.55958 8.40866 8.53764 8.45452 8.49186C8.49621 8.45017 8.51917 8.39464 8.51917 8.33525V6.63875C8.51917 6.56937 8.57541 6.51313 8.64479 6.51313C8.71417 6.51313 8.77041 6.5693 8.77041 6.63875L8.77033 8.72087C8.77033 8.84294 8.86967 8.94229 8.99175 8.94229C9.05106 8.94229 9.10675 8.91932 9.14852 8.87763C9.19021 8.83586 9.21317 8.78017 9.21317 8.72086V6.63875C9.21317 6.56937 9.26934 6.51313 9.33879 6.51313C9.40817 6.51313 9.46441 6.56929 9.46441 6.63875L9.46433 8.31574V8.33525C9.46433 8.45724 9.56368 8.55659 9.68583 8.55659C9.74506 8.55659 9.80059 8.53354 9.8426 8.49169C9.88429 8.45008 9.90725 8.39455 9.90725 8.33516V6.63866C9.90725 6.56928 9.96342 6.51304 10.0329 6.51304C10.1022 6.51304 10.1585 6.56921 10.1585 6.63866L10.1583 7.91922C10.1583 8.04138 10.2577 8.14072 10.3797 8.14072C10.4391 8.14072 10.4946 8.11768 10.5363 8.07607C10.5781 8.03422 10.601 7.97853 10.601 7.91922L10.6011 5.32363C10.6011 4.458 9.96035 3.7536 9.17273 3.7536L9.17274 3.75358Z" fill="#103E13"/>
<path d="M5.44427 10.1959L7.26708 9.10241C7.48685 8.97042 7.76963 9.0265 7.91058 9.23015C7.96203 9.30432 7.9883 9.39077 7.99239 9.47879C8.06035 9.44332 8.13429 9.42405 8.20956 9.42405C8.2481 9.42405 8.2868 9.42884 8.32503 9.43836C8.4475 9.46896 8.5507 9.54549 8.6156 9.65372C8.68057 9.76211 8.69953 9.88914 8.66893 10.0115C8.64069 10.1247 8.57187 10.2199 8.47614 10.2853C8.54308 10.3248 8.60081 10.3786 8.64187 10.4472C8.70685 10.5556 8.7258 10.6826 8.69528 10.8051C8.66468 10.9274 8.58815 11.0306 8.47976 11.0956L8.47913 11.096C8.54489 11.1354 8.6016 11.1888 8.64219 11.2563C8.70724 11.3647 8.7262 11.4918 8.6956 11.6142C8.66492 11.7366 8.58839 11.8398 8.48016 11.9048L6.25447 13.24C5.83907 13.4891 5.35886 13.5751 4.90249 13.4819C4.44202 13.3878 4.06068 13.1232 3.82881 12.7366C3.46186 12.125 3.51685 11.4025 3.97204 10.851C3.99289 10.8258 4.01342 10.8002 4.03206 10.7736C4.0518 10.7455 4.07485 10.7125 4.08272 10.7012C4.12983 10.617 4.89865 9.23182 4.89857 9.23198C4.9762 9.09189 5.12172 9.01259 5.2718 9.01267C5.3418 9.01267 5.41283 9.0299 5.47836 9.06624C5.55749 9.11045 5.62395 9.17487 5.67044 9.2525C5.76601 9.41179 5.76939 9.61112 5.67941 9.77243L5.44427 10.1959ZM5.4552 9.38164C5.43082 9.34097 5.39731 9.30856 5.35632 9.2856C5.27161 9.23872 5.16495 9.26924 5.11831 9.35364C4.56818 10.3447 4.38065 10.6825 4.30828 10.8027L4.30993 10.8031C4.30387 10.8232 4.30387 10.8232 4.23765 10.9178C4.21515 10.9498 4.19069 10.9806 4.16575 11.0109C3.77434 11.4851 3.72889 12.0819 4.04407 12.6074C4.2393 12.9329 4.56196 13.1561 4.95265 13.2358C5.34758 13.3161 5.76385 13.2414 6.12513 13.0246L8.35102 11.6893C8.40184 11.6589 8.43771 11.6105 8.45202 11.5532C8.46634 11.4959 8.45745 11.4364 8.42693 11.3855C8.36416 11.2809 8.22785 11.2466 8.12323 11.3096L7.02517 11.9683C6.9657 12.004 6.88846 11.9849 6.85283 11.9253C6.81712 11.8658 6.83639 11.7887 6.89585 11.753L7.994 11.0942L8.35063 10.8803C8.40145 10.8497 8.43739 10.8014 8.45171 10.7442C8.46602 10.6868 8.45714 10.6272 8.42662 10.5765C8.36377 10.4718 8.22745 10.4377 8.12292 10.5005L6.66814 11.3732C6.60851 11.409 6.53151 11.3896 6.4958 11.3302C6.46009 11.2707 6.47943 11.1936 6.53882 11.1578L8.32429 10.0868C8.3751 10.0562 8.41097 10.0079 8.42528 9.9506C8.4396 9.89334 8.43071 9.83379 8.40027 9.78298C8.36983 9.73225 8.32145 9.69638 8.26411 9.68206C8.20645 9.66775 8.14715 9.67664 8.09649 9.707L7.76597 9.9053C7.76589 9.9053 7.76589 9.90538 7.76581 9.90538H7.76573L6.31103 10.7781C6.25141 10.814 6.17432 10.7946 6.13869 10.7351C6.10298 10.6756 6.12233 10.5984 6.18172 10.5627L7.6365 9.69001C7.68731 9.65949 7.72326 9.61111 7.73758 9.55393C7.75331 9.49116 7.74135 9.42698 7.70407 9.37317C7.63941 9.27965 7.50113 9.25479 7.39628 9.3178L5.172 10.6522C5.12331 10.6813 5.06094 10.6742 5.02011 10.6348C4.97921 10.5953 4.97001 10.5332 4.99754 10.4836L5.46005 9.65029C5.50646 9.56699 5.50465 9.46411 5.45517 9.38167L5.4552 9.38164Z" fill="#103E13"/>
<path d="M14.1547 12.7364C13.9229 13.123 13.5416 13.3876 13.0811 13.4817C12.6246 13.5748 12.1446 13.489 11.7291 13.2398L9.50319 11.9046C9.39488 11.8396 9.31827 11.7364 9.28759 11.6138C9.25715 11.4915 9.27619 11.3645 9.34108 11.2562C9.38159 11.1886 9.43838 11.1353 9.50422 11.0959L9.50359 11.0955C9.39527 11.0305 9.31866 10.9273 9.28815 10.8049C9.25747 10.6825 9.2765 10.5554 9.34148 10.447C9.38332 10.3774 9.44066 10.323 9.50611 10.2843C9.41109 10.219 9.34266 10.124 9.3145 10.0114C9.28382 9.88892 9.30286 9.76188 9.36783 9.65364C9.43272 9.54533 9.536 9.4688 9.6584 9.4382C9.69662 9.42861 9.7354 9.42389 9.77379 9.42389C9.84914 9.42397 9.92308 9.44308 9.99104 9.47864C9.99521 9.39062 10.0214 9.30417 10.0728 9.22999C10.2139 9.02651 10.4964 8.97019 10.7165 9.10225L12.5393 10.1956L12.3043 9.77241C12.2142 9.61085 12.2175 9.41152 12.313 9.25216C12.3596 9.17461 12.4262 9.11019 12.5057 9.06559C12.571 9.0294 12.6418 9.01226 12.7117 9.01226C12.8617 9.01234 13.0074 9.09147 13.0849 9.23156C13.3552 9.71855 13.8652 10.637 13.9011 10.7011C13.9087 10.7122 13.9317 10.7452 13.9515 10.7733C13.9703 10.7999 13.9906 10.8254 14.0116 10.8508C14.4667 11.4025 14.5216 12.1249 14.1547 12.7364L14.1547 12.7364ZM13.8178 11.0108C13.7928 10.9806 13.7682 10.9496 13.7459 10.9178C13.6779 10.8213 13.6762 10.8188 13.6711 10.7936C13.5916 10.6621 13.3978 10.3132 12.8651 9.35342C12.8184 9.26917 12.7122 9.23842 12.6276 9.28514C12.586 9.30842 12.5526 9.34091 12.5282 9.38158C12.4788 9.46393 12.4769 9.56682 12.5235 9.65036L12.9859 10.4834C13.0135 10.5331 13.0043 10.5951 12.9635 10.6346C12.9227 10.6742 12.8604 10.6811 12.8115 10.652L10.5872 9.31763C10.4824 9.25478 10.3442 9.2794 10.2794 9.373C10.2421 9.4268 10.2302 9.49099 10.2458 9.55368C10.2601 9.61094 10.296 9.65924 10.3469 9.68976C10.3471 9.68984 10.3472 9.68999 10.3473 9.69007L11.8016 10.5625C11.8611 10.5983 11.8804 10.6753 11.8447 10.7349C11.809 10.7943 11.732 10.8137 11.6723 10.7779L9.88687 9.70683C9.83621 9.67647 9.77659 9.6675 9.71933 9.6819C9.66191 9.69621 9.61361 9.73208 9.58317 9.78297C9.55265 9.83371 9.54384 9.89325 9.558 9.95051C9.57232 10.0078 9.60826 10.0562 9.65907 10.0867L10.0065 10.295L11.4445 11.1578C11.5039 11.1935 11.5232 11.2706 11.4875 11.3301C11.4518 11.3895 11.3748 11.4089 11.3151 11.3731L9.86052 10.5004C9.75591 10.4375 9.61967 10.4716 9.55674 10.5764C9.52622 10.6272 9.51741 10.6868 9.53157 10.744C9.54589 10.8013 9.58184 10.8496 9.63273 10.8802L9.98936 11.0941L11.0873 11.7529C11.1468 11.7886 11.1661 11.8657 11.1304 11.9252C11.0947 11.9846 11.0177 12.0041 10.958 11.9683L9.86005 11.3095C9.80939 11.2791 9.75001 11.2702 9.69243 11.2846C9.63516 11.2989 9.58671 11.3347 9.55627 11.3855C9.52583 11.4363 9.51694 11.4959 9.5311 11.5531C9.54542 11.6104 9.58136 11.6587 9.63226 11.6893L11.8581 13.0246C12.2194 13.2413 12.6359 13.3163 13.0306 13.2357C13.4212 13.156 13.7439 12.9328 13.9391 12.6073C14.2546 12.0817 14.2092 11.4849 13.8179 11.0108L13.8178 11.0108Z" fill="#103E13"/>
</svg>
