<svg width="23" height="20" viewBox="0 0 23 20" fill="none" xmlns="http://www.w3.org/2000/svg">
<path d="M22.2346 13.1847C22.2346 16.5037 19.544 19.1943 16.225 19.1943L7.21063 19.1943C6.28868 19.1943 5.54129 18.4469 5.54129 17.525L5.54129 6.17354C5.54129 4.32964 7.03606 2.83487 8.87996 2.83487L20.5653 2.83487C21.4872 2.83488 22.2346 3.58226 22.2346 4.50421L22.2346 13.1847Z" fill="#E8F5E9"/>
<path d="M9.51967 6.84491C9.4155 6.84491 9.33081 6.76036 9.33081 6.65605V6.3351C9.33081 6.23093 9.41536 6.14624 9.51967 6.14624C9.62384 6.14624 9.70853 6.23079 9.70853 6.3351V6.65605C9.70853 6.76036 9.62385 6.84491 9.51967 6.84491Z" fill="#103E13"/>
<path d="M8.72572 6.84491C8.62155 6.84491 8.53687 6.76036 8.53687 6.65605V6.3351C8.53687 6.23093 8.62142 6.14624 8.72572 6.14624C8.8299 6.14624 8.91458 6.23079 8.91458 6.3351V6.65605C8.91445 6.76036 8.83003 6.84491 8.72572 6.84491Z" fill="#103E13"/>
<path d="M7.93178 6.84491C7.82761 6.84491 7.74292 6.76036 7.74292 6.65605V6.3351C7.74292 6.23093 7.82747 6.14624 7.93178 6.14624C8.03595 6.14624 8.12064 6.23079 8.12064 6.3351V6.65605C8.12064 6.76036 8.03609 6.84491 7.93178 6.84491Z" fill="#103E13"/>
<path d="M9.51967 8.15752C9.4155 8.15752 9.33081 8.07297 9.33081 7.96867V7.64784C9.33081 7.54367 9.41536 7.45898 9.51967 7.45898C9.62384 7.45898 9.70853 7.54354 9.70853 7.64784V7.96867C9.70853 8.07297 9.62385 8.15752 9.51967 8.15752Z" fill="#103E13"/>
<path d="M8.72572 8.15752C8.62155 8.15752 8.53687 8.07297 8.53687 7.96867V7.64784C8.53687 7.54367 8.62142 7.45898 8.72572 7.45898C8.8299 7.45898 8.91458 7.54354 8.91458 7.64784V7.96867C8.91445 8.07297 8.83003 8.15752 8.72572 8.15752Z" fill="#103E13"/>
<path d="M7.93178 8.15752C7.82761 8.15752 7.74292 8.07297 7.74292 7.96867V7.64784C7.74292 7.54367 7.82747 7.45898 7.93178 7.45898C8.03595 7.45898 8.12064 7.54354 8.12064 7.64784V7.96867C8.12064 8.07297 8.03609 8.15752 7.93178 8.15752Z" fill="#103E13"/>
<path d="M9.51967 9.47016C9.4155 9.47016 9.33081 9.3856 9.33081 9.2813V8.96034C9.33081 8.85617 9.41536 8.77148 9.51967 8.77148C9.62384 8.77148 9.70853 8.85604 9.70853 8.96034V9.2813C9.70853 9.3856 9.62385 9.47016 9.51967 9.47016Z" fill="#103E13"/>
<path d="M8.72572 9.47016C8.62155 9.47016 8.53687 9.3856 8.53687 9.2813V8.96034C8.53687 8.85617 8.62142 8.77148 8.72572 8.77148C8.8299 8.77148 8.91458 8.85604 8.91458 8.96034V9.2813C8.91445 9.3856 8.83003 9.47016 8.72572 9.47016Z" fill="#103E13"/>
<path d="M7.93178 9.47016C7.82761 9.47016 7.74292 9.3856 7.74292 9.2813V8.96034C7.74292 8.85617 7.82747 8.77148 7.93178 8.77148C8.03595 8.77148 8.12064 8.85604 8.12064 8.96034V9.2813C8.12064 9.3856 8.03609 9.47016 7.93178 9.47016Z" fill="#103E13"/>
<path d="M9.51967 10.7822C9.4155 10.7822 9.33081 10.6976 9.33081 10.5933V10.2724C9.33081 10.1682 9.41536 10.0835 9.51967 10.0835C9.62384 10.0835 9.70853 10.168 9.70853 10.2724V10.5933C9.70853 10.6976 9.62385 10.7822 9.51967 10.7822Z" fill="#103E13"/>
<path d="M8.72572 10.7822C8.62155 10.7822 8.53687 10.6976 8.53687 10.5933V10.2724C8.53687 10.1682 8.62142 10.0835 8.72572 10.0835C8.8299 10.0835 8.91458 10.168 8.91458 10.2724V10.5933C8.91445 10.6976 8.83003 10.7822 8.72572 10.7822Z" fill="#103E13"/>
<path d="M7.93178 10.7822C7.82761 10.7822 7.74292 10.6976 7.74292 10.5933V10.2724C7.74292 10.1682 7.82747 10.0835 7.93178 10.0835C8.03595 10.0835 8.12064 10.168 8.12064 10.2724V10.5933C8.12064 10.6976 8.03609 10.7822 7.93178 10.7822Z" fill="#103E13"/>
<path d="M9.51967 12.0948C9.4155 12.0948 9.33081 12.0102 9.33081 11.9059V11.5851C9.33081 11.4809 9.41536 11.3962 9.51967 11.3962C9.62384 11.3962 9.70853 11.4808 9.70853 11.5851V11.9059C9.70853 12.0101 9.62385 12.0948 9.51967 12.0948Z" fill="#103E13"/>
<path d="M8.72572 12.0948C8.62155 12.0948 8.53687 12.0102 8.53687 11.9059V11.5851C8.53687 11.4809 8.62142 11.3962 8.72572 11.3962C8.8299 11.3962 8.91458 11.4808 8.91458 11.5851V11.9059C8.91445 12.0101 8.83003 12.0948 8.72572 12.0948Z" fill="#103E13"/>
<path d="M7.93178 12.0948C7.82761 12.0948 7.74292 12.0102 7.74292 11.9059L7.74305 11.5851C7.74305 11.4809 7.8276 11.3962 7.93191 11.3962C8.03609 11.3962 8.12077 11.4808 8.12077 11.5851V11.9059C8.12064 12.0101 8.03609 12.0948 7.93178 12.0948Z" fill="#103E13"/>
<path d="M2.53654 13.4009C2.53654 13.505 2.62109 13.5897 2.7254 13.5897H14.2263C14.3305 13.5897 14.4152 13.5052 14.4152 13.4009C14.4152 13.2967 14.3307 13.212 14.2263 13.212H13.8772V7.78959C13.8772 7.68541 13.7927 7.60073 13.6884 7.60073L10.6049 7.60086V3.69157C10.6049 3.62546 10.5704 3.56435 10.514 3.53011C10.4578 3.49574 10.3874 3.49363 10.329 3.52405L6.82324 5.34929C6.76068 5.38182 6.7217 5.44636 6.7217 5.51682V8.9315H3.32894C3.22476 8.9315 3.14008 9.01605 3.14008 9.12036V13.212H2.72497C2.6208 13.2119 2.53638 13.2965 2.53638 13.4008L2.53654 13.4009ZM10.6049 10.4612H13.4997V13.2122L10.6049 13.212V10.4612ZM10.6049 9.1488H13.4997V10.0836L10.6049 10.0835V9.1488ZM10.6049 7.97838H13.4997V8.77136H10.6049V7.97838ZM7.09922 5.63149L10.2271 4.00288V13.2119H7.09922V5.63149ZM4.45139 11.7036C4.45139 11.3117 4.76194 10.9927 5.14374 10.9927C5.52553 10.9927 5.83622 11.3115 5.83622 11.7036V13.2121H4.45139V11.7036ZM3.51778 9.30915H6.72165V13.212H6.21393V11.7035C6.21393 11.1034 5.73402 10.615 5.14374 10.615C4.55372 10.615 4.07382 11.1032 4.07382 11.7035V13.212H3.51778V9.30915Z" fill="#103E13"/>
</svg>
