<svg width="20" height="17" viewBox="0 0 20 17" fill="none" xmlns="http://www.w3.org/2000/svg">
<g clip-path="url(#clip0_212_1127)">
<path d="M19.299 7.26097C19.3009 7.24705 19.3009 7.23297 19.299 7.21905C19.3008 7.20771 19.3008 7.19614 19.299 7.18477L19.1629 6.20566C19.1433 6.08852 19.0908 5.97903 19.0114 5.88945L18.9881 5.86278L18.9453 5.82087L16.5904 3.83217L16.6564 3.89694C16.6024 3.83354 16.5346 3.78284 16.4579 3.74855C16.3812 3.71427 16.2977 3.69727 16.2134 3.69883H15.4984C15.3821 3.69657 15.2685 3.73281 15.1758 3.8017C15.0785 3.73323 14.9614 3.69717 14.8416 3.69883H14.1266C14.0328 3.69734 13.9403 3.72016 13.8584 3.76498C13.7765 3.8098 13.7082 3.87504 13.6603 3.95408C13.5864 4.06698 13.5587 4.20301 13.5826 4.33506L13.6719 4.95224C13.6127 4.91933 13.5457 4.90226 13.4776 4.90272H10.0151C9.89092 4.90348 9.76955 4.93918 9.66539 5.00558C9.56468 5.06738 9.48383 5.15588 9.43223 5.26083L9.16409 5.03606C9.05855 4.94033 8.91925 4.88844 8.77549 4.89129H3.34276C3.21809 4.89352 3.09619 4.92766 2.98914 4.99034C2.84268 5.07438 2.73535 5.21103 2.68991 5.37132L0.964492 11.0288C0.932254 11.1221 0.929082 11.2226 0.955384 11.3176C0.981686 11.4126 1.03627 11.4978 1.11216 11.5622C1.13194 11.5786 1.1527 11.5939 1.17434 11.6079C1.17434 11.6079 1.13936 11.585 1.11993 11.566L3.4749 13.5585C3.57452 13.6484 3.70477 13.6987 3.84017 13.6995H9.31566C9.4407 13.6963 9.56269 13.6608 9.66929 13.5966C9.72958 13.5643 9.78352 13.5217 9.82861 13.4709L9.84805 13.4442L9.87914 13.4061L9.90245 13.3642L10.1589 13.5814C10.2571 13.6677 10.3845 13.7152 10.5164 13.7147H16.0036C16.1285 13.7106 16.2502 13.6752 16.3572 13.6119C16.4161 13.5776 16.4698 13.5352 16.5165 13.4861L16.536 13.4595L16.567 13.4214C16.5836 13.3973 16.5979 13.3718 16.6098 13.3452C16.6225 13.3221 16.6329 13.2978 16.6409 13.2728L18.2147 8.10675V8.06102C18.2167 8.04329 18.2167 8.02541 18.2147 8.00769V7.97341C18.2166 7.96204 18.2166 7.95047 18.2147 7.9391C18.2165 7.91501 18.2165 7.89083 18.2147 7.86671H18.7199C18.7639 7.87067 18.8081 7.87067 18.852 7.86671H18.887C18.9155 7.8584 18.9429 7.84688 18.9687 7.83243H19.0075L19.0775 7.7791L19.1085 7.75624L19.1629 7.68765V7.66481L19.2018 7.60004C19.1996 7.58744 19.1996 7.57455 19.2018 7.56195C19.1997 7.55577 19.1997 7.54908 19.2018 7.54289C19.2101 7.52056 19.2166 7.49762 19.2212 7.47431C19.2194 7.4668 19.2194 7.45896 19.2212 7.45145C19.2194 7.44011 19.2194 7.42851 19.2212 7.41717C19.2212 7.41717 19.299 7.26858 19.299 7.26097Z" fill="black"/>
<path d="M8.93478 5.32572C8.95541 5.34401 8.96982 5.36806 8.97607 5.39463C8.98234 5.4212 8.98012 5.449 8.96977 5.4743L7.24824 11.128C7.22657 11.1897 7.18221 11.2413 7.12389 11.2728C7.07643 11.3039 7.02149 11.3223 6.96454 11.3261H1.49297C1.44624 11.3239 1.40197 11.3049 1.36861 11.2728C1.34877 11.2548 1.33484 11.2314 1.32861 11.2056C1.32238 11.1798 1.32414 11.1528 1.33364 11.128L3.05905 5.4743C3.07894 5.4118 3.12189 5.35881 3.17952 5.32572C3.22777 5.29683 3.28244 5.27984 3.33885 5.27619H8.81042C8.85679 5.27663 8.90124 5.29434 8.93478 5.32572ZM6.07852 9.98889L7.10833 6.61342H4.22488L3.19895 9.98889H6.07852ZM14.1577 5.38287C14.1763 5.40414 14.1997 5.421 14.2259 5.43222C14.2521 5.44343 14.2806 5.4487 14.3092 5.44763H15.0204C15.0475 5.44789 15.0741 5.44138 15.0979 5.42872C15.1217 5.41605 15.1418 5.39765 15.1564 5.37525C15.169 5.35775 15.1779 5.33794 15.1826 5.317C15.1873 5.29606 15.1876 5.27441 15.1836 5.25334L15.0437 4.24756C15.0304 4.20101 15.0064 4.15802 14.9737 4.12183C14.9551 4.10056 14.9317 4.0837 14.9055 4.07248C14.8793 4.06127 14.8508 4.056 14.8222 4.05707H14.111C14.0839 4.05681 14.0572 4.06332 14.0335 4.07598C14.0097 4.08865 13.9895 4.10705 13.975 4.12945C13.9478 4.18279 13.9362 4.21708 13.9478 4.24756L14.0916 5.25334C14.099 5.30231 14.1221 5.34769 14.1577 5.38287ZM16.4155 4.23994C16.4021 4.19338 16.3782 4.1504 16.3455 4.11421C16.3276 4.09302 16.305 4.07616 16.2794 4.06493C16.2538 4.0537 16.2259 4.0484 16.1978 4.04945H15.4828C15.4562 4.0487 15.4298 4.05504 15.4066 4.06778C15.3833 4.08052 15.364 4.0992 15.3507 4.12183C15.3248 4.15563 15.3136 4.19809 15.3196 4.23994L15.4634 5.24571C15.4724 5.29417 15.4953 5.3391 15.5294 5.37525C15.5484 5.3961 15.5718 5.41268 15.598 5.42386C15.6242 5.43504 15.6525 5.44055 15.681 5.44001H16.396C16.4226 5.44036 16.4488 5.43385 16.472 5.42115C16.4952 5.40844 16.5146 5.38999 16.5282 5.36763C16.5417 5.35058 16.5511 5.33078 16.5558 5.30969C16.5606 5.2886 16.5604 5.26674 16.5554 5.24571L16.4155 4.23994ZM13.532 5.76384L13.462 5.26857H10.0151C9.96099 5.2715 9.90864 5.2886 9.86355 5.3181C9.83493 5.3334 9.81001 5.35461 9.79055 5.38026C9.77112 5.40592 9.75758 5.4354 9.75087 5.46668L9.46329 6.4115C9.45181 6.43511 9.44789 6.4616 9.45204 6.48745C9.45623 6.51329 9.46826 6.53728 9.4866 6.55628C9.51937 6.58648 9.56214 6.60408 9.60708 6.60581H13.7963L12.7665 9.98128H8.58892C8.53506 9.98248 8.4826 9.9983 8.43738 10.027C8.38242 10.0612 8.34228 10.1141 8.32468 10.1756L8.03322 11.1204C8.02371 11.1446 8.02121 11.171 8.026 11.1965C8.03082 11.2221 8.04271 11.2458 8.06041 11.2652C8.09216 11.2974 8.13526 11.3165 8.18089 11.3185H13.668C13.7248 11.3137 13.7795 11.2954 13.8273 11.2652C13.8847 11.2336 13.9278 11.1818 13.9478 11.1204L15.5255 5.95433H13.7496C13.7214 5.95488 13.6935 5.94975 13.6674 5.93927C13.6413 5.92878 13.6177 5.91316 13.5981 5.89337C13.5659 5.85883 13.5432 5.8169 13.532 5.77146V5.76384Z" fill="white"/>
</g>
<defs>
<clipPath id="clip0_212_1127">
<rect width="18.3627" height="10.016" fill="white" transform="translate(0.937744 3.69873)"/>
</clipPath>
</defs>
</svg>
