<svg width="20" height="17" viewBox="0 0 20 17" fill="none" xmlns="http://www.w3.org/2000/svg">
<g clip-path="url(#clip0_212_1155)">
<path d="M19.0251 7.26097C19.027 7.24705 19.027 7.23297 19.0251 7.21905C19.0269 7.20771 19.0269 7.19614 19.0251 7.18477L18.889 6.20566C18.8694 6.08852 18.8169 5.97903 18.7375 5.88945L18.7141 5.86278L18.6714 5.82087L16.3165 3.83217L16.3825 3.89694C16.3285 3.83354 16.2606 3.78284 16.184 3.74855C16.1073 3.71427 16.0238 3.69727 15.9395 3.69883H15.2245C15.1082 3.69657 14.9946 3.73281 14.9019 3.8017C14.8046 3.73323 14.6875 3.69717 14.5677 3.69883H13.8527C13.7589 3.69734 13.6664 3.72016 13.5845 3.76498C13.5026 3.8098 13.4343 3.87504 13.3864 3.95408C13.3125 4.06698 13.2848 4.20301 13.3086 4.33506L13.398 4.95224C13.3388 4.91933 13.2718 4.90226 13.2037 4.90272H9.74122C9.61699 4.90348 9.49562 4.93918 9.39146 5.00558C9.29075 5.06738 9.2099 5.15588 9.15831 5.26083L8.89016 5.03606C8.78463 4.94033 8.64533 4.88844 8.50156 4.89129H3.06884C2.94417 4.89352 2.82227 4.92766 2.71522 4.99034C2.56876 5.07438 2.46143 5.21103 2.41598 5.37132L0.690567 11.0288C0.658328 11.1221 0.655156 11.2226 0.681459 11.3176C0.707761 11.4126 0.762345 11.4978 0.838239 11.5622C0.858014 11.5786 0.878779 11.5939 0.900417 11.6079C0.900417 11.6079 0.865437 11.585 0.846007 11.566L3.20097 13.5585C3.30059 13.6484 3.43084 13.6987 3.56624 13.6995H9.04173C9.16678 13.6963 9.28876 13.6608 9.39537 13.5966C9.45566 13.5643 9.5096 13.5217 9.55469 13.4709L9.57412 13.4442L9.60521 13.4061L9.62852 13.3642L9.88501 13.5814C9.9832 13.6677 10.1106 13.7152 10.2425 13.7147H15.7296C15.8546 13.7106 15.9763 13.6752 16.0833 13.6119C16.1422 13.5776 16.1958 13.5352 16.2426 13.4861L16.262 13.4595L16.2931 13.4214C16.3096 13.3973 16.324 13.3718 16.3359 13.3452C16.3486 13.3221 16.359 13.2978 16.367 13.2728L17.9408 8.10675V8.06102C17.9428 8.04329 17.9428 8.02541 17.9408 8.00769V7.97341C17.9427 7.96204 17.9427 7.95047 17.9408 7.9391C17.9426 7.91501 17.9426 7.89083 17.9408 7.86671H18.446C18.49 7.87067 18.5342 7.87067 18.5781 7.86671H18.6131C18.6416 7.8584 18.6689 7.84688 18.6947 7.83243H18.7336L18.8035 7.7791L18.8346 7.75624L18.889 7.68765V7.66481L18.9279 7.60004C18.9257 7.58744 18.9257 7.57455 18.9279 7.56195C18.9258 7.55577 18.9258 7.54908 18.9279 7.54289C18.9361 7.52056 18.9426 7.49762 18.9473 7.47431C18.9455 7.4668 18.9455 7.45896 18.9473 7.45145C18.9454 7.44011 18.9454 7.42851 18.9473 7.41717C18.9473 7.41717 19.0251 7.26858 19.0251 7.26097Z" fill="black"/>
<path d="M8.66085 5.32572C8.68148 5.34401 8.69589 5.36806 8.70214 5.39463C8.70842 5.4212 8.7062 5.449 8.69584 5.4743L6.97432 11.128C6.95264 11.1897 6.90829 11.2413 6.84996 11.2728C6.8025 11.3039 6.74756 11.3223 6.69061 11.3261H1.21904C1.17232 11.3239 1.12805 11.3049 1.09469 11.2728C1.07484 11.2548 1.06092 11.2314 1.05469 11.2056C1.04845 11.1798 1.05021 11.1528 1.05971 11.128L2.78513 5.4743C2.80501 5.4118 2.84797 5.35881 2.9056 5.32572C2.95384 5.29683 3.00851 5.27984 3.06492 5.27619H8.5365C8.58286 5.27663 8.62731 5.29434 8.66085 5.32572ZM5.80459 9.98889L6.8344 6.61342H3.95096L2.92502 9.98889H5.80459ZM13.8837 5.38287C13.9024 5.40414 13.9257 5.421 13.952 5.43222C13.9782 5.44343 14.0067 5.4487 14.0353 5.44763H14.7464C14.7735 5.44789 14.8002 5.44138 14.824 5.42872C14.8478 5.41605 14.8679 5.39765 14.8825 5.37525C14.8951 5.35775 14.904 5.33794 14.9087 5.317C14.9133 5.29606 14.9137 5.27441 14.9096 5.25334L14.7698 4.24756C14.7564 4.20101 14.7325 4.15802 14.6998 4.12183C14.6811 4.10056 14.6578 4.0837 14.6316 4.07248C14.6053 4.06127 14.5768 4.056 14.5483 4.05707H13.8371C13.81 4.05681 13.7833 4.06332 13.7595 4.07598C13.7357 4.08865 13.7156 4.10705 13.7011 4.12945C13.6739 4.18279 13.6622 4.21708 13.6739 4.24756L13.8177 5.25334C13.825 5.30231 13.8482 5.34769 13.8837 5.38287ZM16.1415 4.23994C16.1282 4.19338 16.1043 4.1504 16.0716 4.11421C16.0537 4.09302 16.0311 4.07616 16.0055 4.06493C15.9799 4.0537 15.952 4.0484 15.9239 4.04945H15.2089C15.1822 4.0487 15.1559 4.05504 15.1326 4.06778C15.1094 4.08052 15.0901 4.0992 15.0768 4.12183C15.0509 4.15563 15.0397 4.19809 15.0457 4.23994L15.1894 5.24571C15.1985 5.29417 15.2214 5.3391 15.2555 5.37525C15.2745 5.3961 15.2979 5.41268 15.3241 5.42386C15.3502 5.43504 15.3785 5.44055 15.4071 5.44001H16.1221C16.1487 5.44036 16.1749 5.43385 16.198 5.42115C16.2212 5.40844 16.2406 5.38999 16.2542 5.36763C16.2678 5.35058 16.2772 5.33078 16.2819 5.30969C16.2866 5.2886 16.2865 5.26674 16.2814 5.24571L16.1415 4.23994ZM13.2581 5.76384L13.1881 5.26857H9.74119C9.68707 5.2715 9.63471 5.2886 9.58962 5.3181C9.561 5.3334 9.53609 5.35461 9.51663 5.38026C9.49719 5.40592 9.48365 5.4354 9.47694 5.46668L9.18936 6.4115C9.17789 6.43511 9.17396 6.4616 9.17812 6.48745C9.1823 6.51329 9.19434 6.53728 9.21268 6.55628C9.24545 6.58648 9.28822 6.60408 9.33315 6.60581H13.5223L12.4925 9.98128H8.315C8.26113 9.98248 8.20867 9.9983 8.16345 10.027C8.10849 10.0612 8.06835 10.1141 8.05075 10.1756L7.7593 11.1204C7.74978 11.1446 7.74728 11.171 7.75208 11.1965C7.7569 11.2221 7.76878 11.2458 7.78648 11.2652C7.81824 11.2974 7.86134 11.3165 7.90696 11.3185H13.3941C13.4508 11.3137 13.5055 11.2954 13.5534 11.2652C13.6108 11.2336 13.6538 11.1818 13.6739 11.1204L15.2516 5.95433H13.4757C13.4475 5.95488 13.4195 5.94975 13.3935 5.93927C13.3674 5.92878 13.3438 5.91316 13.3242 5.89337C13.292 5.85883 13.2693 5.8169 13.2581 5.77146V5.76384Z" fill="white"/>
</g>
<defs>
<clipPath id="clip0_212_1155">
<rect width="18.3627" height="10.016" fill="white" transform="translate(0.663818 3.69873)"/>
</clipPath>
</defs>
</svg>
