<svg width="17" height="17" viewBox="0 0 17 17" fill="none" xmlns="http://www.w3.org/2000/svg">
<g clip-path="url(#clip0_212_1124)">
<path fill-rule="evenodd" clip-rule="evenodd" d="M5.17742 5.40645L1.84351 8.70685C2.51035 9.367 3.27212 9.92336 4.10266 10.3586C4.33223 10.9614 4.69207 11.5268 5.18217 12.012C7.02608 13.8373 10.0156 13.8373 11.8595 12.012C12.3496 11.5268 12.7095 10.9614 12.939 10.3586C13.7696 9.92336 14.5313 9.367 15.1982 8.70685L11.8669 5.40913C11.8645 5.40667 11.862 5.4042 11.8595 5.40173C10.0156 3.57638 7.02608 3.57638 5.18217 5.40173C5.18059 5.40331 5.17901 5.40488 5.17742 5.40645ZM11.5405 10.9541C10.5689 11.2787 9.54905 11.4449 8.52084 11.4449C7.49263 11.4449 6.47277 11.2787 5.50121 10.9541C5.60648 11.0923 5.7227 11.225 5.8499 11.3509C7.32503 12.8112 9.71665 12.8112 11.1918 11.3509C11.319 11.225 11.4352 11.0923 11.5405 10.9541ZM5.91838 5.99665C6.16888 6.16048 6.43524 6.30068 6.71395 6.41497C7.2868 6.64987 7.90078 6.77077 8.52084 6.77077C9.14089 6.77077 9.75487 6.64987 10.3277 6.41497C10.6064 6.30068 10.8728 6.16048 11.1233 5.99664C9.6666 4.6245 7.37507 4.62451 5.91838 5.99665Z" fill="#3B4158"/>
</g>
<defs>
<clipPath id="clip0_212_1124">
<rect width="13.3547" height="9.34826" fill="white" transform="translate(1.84351 4.03271)"/>
</clipPath>
</defs>
</svg>
