<svg width="17" height="17" viewBox="0 0 17 17" fill="none" xmlns="http://www.w3.org/2000/svg">
<g clip-path="url(#clip0_212_1121)">
<path fill-rule="evenodd" clip-rule="evenodd" d="M4.75077 2.08057C6.59465 2.08057 8.08944 3.57534 8.08944 5.41923V2.08057H11.4281C13.272 2.08057 14.7668 3.57534 14.7668 5.41923C14.7668 7.26311 13.272 8.7579 11.4281 8.7579C13.272 8.7579 14.7668 10.2527 14.7668 12.0966C14.7668 13.0121 14.3982 13.8416 13.8014 14.4448L13.7889 14.4574L13.7778 14.4684C13.1745 15.0661 12.3444 15.4352 11.4281 15.4352C10.518 15.4352 9.69297 15.0711 9.09071 14.4805C9.08289 14.4729 9.07508 14.4651 9.0673 14.4574C9.05999 14.4501 9.05271 14.4427 9.04547 14.4353C8.45416 13.833 8.08944 13.0073 8.08944 12.0966C8.08944 13.9404 6.59465 15.4352 4.75077 15.4352C2.90688 15.4352 1.41211 13.9404 1.41211 12.0966V8.7579H4.75077C2.90688 8.7579 1.41211 7.26311 1.41211 5.41923C1.41211 3.57534 2.90688 2.08057 4.75077 2.08057ZM7.42171 5.41923C7.42171 6.89435 6.2259 8.09016 4.75077 8.09016V2.7483C6.2259 2.7483 7.42171 3.94412 7.42171 5.41923ZM14.099 12.0966C14.099 10.6214 12.9032 9.42563 11.4281 9.42563C9.95298 9.42563 8.75717 10.6214 8.75717 12.0966H14.099ZM2.07984 9.42563V12.0966C2.07984 13.5717 3.27566 14.7675 4.75077 14.7675C6.2259 14.7675 7.42171 13.5717 7.42171 12.0966V9.42563H2.07984ZM8.75717 8.09016V2.7483H11.4281C12.9032 2.7483 14.099 3.94412 14.099 5.41923C14.099 6.89435 12.9032 8.09016 11.4281 8.09016H8.75717Z" fill="#263238"/>
</g>
<defs>
<clipPath id="clip0_212_1121">
<rect width="13.3547" height="13.3547" fill="white" transform="translate(1.41211 2.08057)"/>
</clipPath>
</defs>
</svg>
