<svg width="17" height="17" viewBox="0 0 17 17" fill="none" xmlns="http://www.w3.org/2000/svg">
<g clip-path="url(#clip0_212_1147)">
<path d="M14.9709 4.6484C14.9709 4.80398 15.0986 4.9301 15.2561 4.9301H15.5413C15.6988 4.9301 15.8265 4.80398 15.8265 4.6484C15.8265 4.49282 15.6988 4.3667 15.5413 4.3667H15.2561C15.0986 4.3667 14.9709 4.49282 14.9709 4.6484Z" fill="#212326"/>
<path d="M6.70078 13.3811H8.08613L7.68282 12.9827C7.57587 12.8771 7.43079 12.8177 7.27953 12.8177H6.70078C4.49579 12.8177 2.70829 11.052 2.70829 8.8739C2.70829 6.69579 4.49579 4.9301 6.70078 4.9301H11.2636C13.4686 4.9301 15.2561 6.69579 15.2561 8.8739C15.2561 11.052 13.4686 12.8177 11.2636 12.8177H9.55676C9.32985 12.8177 9.11225 12.7287 8.95179 12.5702L8.47931 12.1034C8.21191 11.8393 7.8492 11.6909 7.47104 11.6909H6.70078C5.12578 11.6909 3.84901 10.4297 3.84901 8.8739C3.84901 7.3181 5.12578 6.0569 6.70078 6.0569H11.2636C12.8386 6.0569 14.1154 7.3181 14.1154 8.8739C14.1154 10.4297 12.8386 11.6909 11.2636 11.6909H10.1677C9.94074 11.6909 9.72314 11.6019 9.56269 11.4434L9.09018 10.9766C8.82278 10.7125 8.4601 10.5641 8.08193 10.5641H6.70078C5.7558 10.5641 4.98972 9.80736 4.98972 8.8739C4.98972 7.94043 5.7558 7.1837 6.70078 7.1837H11.2636C12.2086 7.1837 12.9747 7.94043 12.9747 8.8739C12.9747 9.79598 12.2272 10.5456 11.2981 10.5638L11.2979 10.5641H10.8806C10.6537 10.5641 10.4361 10.4751 10.2756 10.3166L9.80313 9.84984C9.58372 9.63309 9.30017 9.49429 8.99653 9.45145L8.9822 9.4373H6.70078C6.38579 9.4373 6.13043 9.18505 6.13043 8.8739C6.13043 8.56274 6.38579 8.3105 6.70078 8.3105H11.2636C11.5786 8.3105 11.834 8.56274 11.834 8.8739C11.834 9.18505 11.5786 9.4373 11.2636 9.4373H10.1229L10.5262 9.83569C10.6332 9.94134 10.7783 10.0007 10.9295 10.0007H11.2636C11.8936 10.0007 12.4043 9.49621 12.4043 8.8739C12.4043 8.25159 11.8936 7.7471 11.2636 7.7471H6.70078C6.07079 7.7471 5.56007 8.25159 5.56007 8.8739C5.56007 9.49621 6.07079 10.0007 6.70078 10.0007H8.79488C9.02179 10.0007 9.23939 10.0897 9.39984 10.2482L9.87235 10.715C10.1398 10.9791 10.5024 11.1275 10.8806 11.1275H11.4062V11.1232C12.5998 11.0505 13.545 10.0712 13.545 8.8739C13.545 7.62928 12.5236 6.6203 11.2636 6.6203H6.70078C5.4408 6.6203 4.41936 7.62928 4.41936 8.8739C4.41936 10.1185 5.4408 11.1275 6.70078 11.1275H8.08193C8.30884 11.1275 8.52644 11.2165 8.6869 11.375L9.1594 11.8418C9.42681 12.1059 9.78948 12.2543 10.1677 12.2543H11.2636C13.1536 12.2543 14.6858 10.7408 14.6858 8.8739C14.6858 7.00695 13.1536 5.4935 11.2636 5.4935H6.70078C4.81078 5.4935 3.27865 7.00695 3.27865 8.8739C3.27865 10.7408 4.81078 12.2543 6.70078 12.2543H7.47104C7.69795 12.2543 7.91555 12.3433 8.076 12.5018L8.54851 12.9686C8.81591 13.2327 9.17859 13.3811 9.55676 13.3811H11.2636C13.7836 13.3811 15.8265 11.3632 15.8265 8.8739C15.8265 6.38464 13.7836 4.3667 11.2636 4.3667L6.70078 4.3667C4.18079 4.3667 2.13794 6.38464 2.13794 8.8739C2.13794 11.3632 4.1808 13.3811 6.70078 13.3811Z" fill="#212326"/>
</g>
<defs>
<clipPath id="clip0_212_1147">
<rect width="13.6885" height="9.0144" fill="white" transform="translate(2.13794 4.3667)"/>
</clipPath>
</defs>
</svg>
