<svg width="17" height="17" viewBox="0 0 17 17" fill="none" xmlns="http://www.w3.org/2000/svg">
<g clip-path="url(#clip0_212_1131)">
<path d="M15.3937 5.22282C15.3937 5.23411 15.3937 5.24822 15.3908 5.25668C15.3761 5.36676 15.3761 5.47683 15.3849 5.58972C15.3908 5.61794 15.3967 5.64617 15.4202 5.66875C15.4584 5.71108 15.5172 5.70261 15.5408 5.65181C15.5525 5.62641 15.5525 5.60101 15.5467 5.57561C15.5172 5.46836 15.5114 5.35547 15.5084 5.24539C15.5084 5.23975 15.5084 5.23128 15.5084 5.22282C15.5408 5.21999 15.5702 5.21717 15.5966 5.21717C15.6172 5.21435 15.6349 5.21153 15.6496 5.20306C15.6937 5.18048 15.6937 5.1325 15.6466 5.10992C15.629 5.10146 15.6055 5.09863 15.5849 5.09863C15.5114 5.10146 15.4379 5.10146 15.3643 5.10146C15.3379 5.10146 15.3114 5.10428 15.2849 5.1071C15.2702 5.10992 15.2526 5.10992 15.2408 5.11839C15.2202 5.12686 15.2085 5.14097 15.2085 5.16072C15.2114 5.18048 15.2202 5.19177 15.2408 5.20024C15.2526 5.20871 15.2673 5.21153 15.282 5.21153C15.3173 5.21435 15.3555 5.21999 15.3937 5.22282ZM16.2024 5.35264C16.2024 5.35547 16.2053 5.35829 16.2053 5.35829C16.2171 5.43449 16.2289 5.50787 16.2377 5.58125C16.2407 5.60665 16.2436 5.62923 16.2612 5.64899C16.2995 5.69697 16.3583 5.69132 16.3847 5.64052C16.3965 5.61512 16.3994 5.58972 16.3936 5.5615C16.3759 5.47683 16.3671 5.39216 16.3494 5.31031C16.3377 5.25951 16.323 5.21153 16.3083 5.16637C16.2995 5.13815 16.2789 5.11839 16.2436 5.11557C16.2083 5.10992 16.1818 5.12686 16.1671 5.15226C16.1495 5.17484 16.1348 5.19741 16.123 5.22282C16.1024 5.26797 16.0848 5.31313 16.0613 5.35547C16.0583 5.36676 16.0554 5.37522 16.0495 5.38369C16.0466 5.37804 16.0436 5.37522 16.0436 5.37522C16.0054 5.30466 15.9701 5.23411 15.9319 5.16637C15.926 5.16072 15.9231 5.15508 15.9201 5.14944C15.9025 5.12404 15.8819 5.10992 15.8495 5.10992C15.8201 5.11274 15.7966 5.12968 15.7819 5.15508C15.776 5.16637 15.776 5.17484 15.7731 5.18613C15.7613 5.27644 15.7466 5.36676 15.7349 5.45707C15.729 5.50787 15.726 5.55867 15.726 5.60948C15.7231 5.62076 15.726 5.63488 15.7319 5.64617C15.7378 5.66874 15.7554 5.68286 15.779 5.68568C15.8084 5.6885 15.8289 5.68003 15.8378 5.65745C15.8466 5.64052 15.8495 5.62641 15.8525 5.6123C15.8643 5.5615 15.8731 5.51352 15.8819 5.46554C15.8878 5.43731 15.8907 5.41473 15.8995 5.38369C15.9054 5.39498 15.9113 5.40345 15.9172 5.41191C15.9436 5.44578 15.9701 5.47965 16.0025 5.50787C16.0348 5.53045 16.0613 5.52763 16.0877 5.50223C16.0936 5.49658 16.0966 5.49376 16.1024 5.48811C16.1289 5.4486 16.1613 5.40909 16.1877 5.36958C16.1936 5.36393 16.1965 5.35829 16.2024 5.35264Z" fill="#3A3B7B"/>
<path d="M9.42701 5.27847C9.40656 5.33211 9.40266 5.37075 9.4121 5.40287C9.42253 5.44654 9.44958 5.46084 9.4863 5.44973C9.8317 5.36776 10.5891 5.60044 10.8695 5.66529C10.9356 5.67891 10.9894 5.59697 10.9443 5.52351C10.8784 5.45237 10.1214 5.14778 9.83253 5.13118C9.7193 5.12504 9.51688 5.09717 9.42701 5.27847Z" fill="#3A3B7B"/>
<path d="M12.387 4.29238C12.4238 4.31277 12.4444 4.33222 12.4545 4.35395C12.4697 4.38246 12.4617 4.40219 12.4363 4.41225C12.208 4.5192 11.9041 4.97963 11.7815 5.13843C11.7518 5.17496 11.6832 5.15373 11.6729 5.09366C11.675 5.02573 11.9443 4.52606 12.0946 4.38997C12.1537 4.33684 12.2512 4.23258 12.387 4.29238Z" fill="#3A3B7B"/>
<path d="M10.5687 4.06568C10.613 4.03369 10.6589 4.02248 10.6824 4.04327C11.0269 4.32602 11.2095 4.77378 11.3226 5.18369C11.3269 5.19324 11.3272 5.20695 11.3238 5.22124C11.3224 5.23346 11.3131 5.24637 11.2983 5.25636C11.2825 5.26739 11.2689 5.27074 11.2625 5.26124C11.1115 5.06415 10.2492 4.29731 10.5687 4.06568Z" fill="#3A3B7B"/>
<path d="M3.27402 8.96799C3.35658 8.90899 3.44634 8.85988 3.54132 8.82177C3.64069 8.7945 3.74661 8.79901 3.84307 8.83466C3.9395 8.87031 4.02126 8.93511 4.07591 9.0193C4.1248 9.10327 4.14392 9.20023 4.13043 9.29555C4.11693 9.39086 4.07154 9.47938 4.00106 9.54779C3.94643 9.60325 3.8844 9.65155 3.81664 9.69146C3.5146 9.87875 3.20986 10.0558 2.90514 10.243C2.84279 10.2899 2.77665 10.332 2.70734 10.3688C2.60192 10.4192 2.48144 10.4327 2.36674 10.407C2.25204 10.3812 2.15032 10.3178 2.07919 10.2277C2.02601 10.1638 1.98113 10.0941 1.94554 10.0198C1.65685 9.43748 1.35748 8.85768 1.07949 8.26504C0.951183 8.00851 0.846937 7.71347 0.745363 7.42871C0.701418 7.34597 0.692836 7.25005 0.721446 7.16133C0.750055 7.0726 0.813599 6.99809 0.89856 6.95364C0.983521 6.90919 1.0832 6.89832 1.17639 6.92332C1.26958 6.94832 1.34893 7.00723 1.39757 7.0875C1.54708 7.27819 1.67943 7.48075 1.79318 7.69296C2.08186 8.20605 2.35718 8.71914 2.63517 9.21684C2.65136 9.24435 2.66921 9.27089 2.68863 9.29637C2.89787 9.21193 3.09466 9.10154 3.27402 8.96799Z" fill="#3A3B7B"/>
<path d="M6.25879 8.789C5.59857 9.53041 4.49195 9.34313 3.93597 8.38878C3.54036 7.71149 3.47086 6.59294 4.33158 5.88743C4.51537 5.73973 4.73515 5.63911 4.97041 5.59497C5.25887 5.55528 5.55302 5.60412 5.81081 5.73452C6.06861 5.86491 6.27686 6.07018 6.40582 6.321C6.87626 7.14196 6.80944 8.18866 6.25879 8.789ZM5.99149 7.05986C5.92135 6.85812 5.78064 6.68589 5.59322 6.57241C5.48716 6.49986 5.35829 6.46458 5.22832 6.47253C5.09832 6.48047 4.97516 6.53115 4.87953 6.61602C4.49731 6.94185 4.4171 7.71406 4.69509 8.17328C4.73053 8.24816 4.78256 8.31471 4.84759 8.36827C4.91262 8.42183 4.98906 8.4611 5.07156 8.48333C5.15405 8.50558 5.2406 8.51024 5.32518 8.49702C5.40976 8.48377 5.49028 8.45296 5.56116 8.40673C5.76836 8.25254 5.92037 8.04024 5.99604 7.79933C6.07175 7.5584 6.06735 7.30083 5.98349 7.06243L5.99149 7.05986Z" fill="#3A3B7B"/>
<path d="M8.9531 7.38281C8.88551 7.39676 8.81568 7.3976 8.74774 7.38525C8.67982 7.37291 8.61512 7.34767 8.55751 7.31099C8.50709 7.2833 8.4637 7.24526 8.43043 7.19955C8.39719 7.15385 8.3749 7.10165 8.3652 7.04669C8.35547 6.99174 8.35858 6.93541 8.37425 6.88174C8.38994 6.82807 8.41785 6.7784 8.45594 6.73631C8.52229 6.65172 8.61649 6.59116 8.72324 6.56443C9.00194 6.48679 9.28886 6.43946 9.57859 6.42333C9.64226 6.41623 9.70675 6.4214 9.76828 6.43854C9.82984 6.4557 9.88718 6.48446 9.93699 6.52319C9.98678 6.5619 10.028 6.60978 10.0583 6.664C10.0885 6.71822 10.1072 6.7777 10.1132 6.83894C10.1967 7.13974 10.2059 7.45514 10.1399 7.75995C9.89935 8.74509 9.07072 9.08372 8.14051 8.76817C7.8794 8.6838 7.65046 8.5266 7.48296 8.31665C7.25956 8.06382 7.10116 7.76418 7.02053 7.44183C6.95521 7.15477 6.96236 6.85692 7.04142 6.57308C7.12046 6.28924 7.26911 6.02765 7.47494 5.81018C7.67028 5.57381 7.92381 5.38779 8.2127 5.26886C8.39523 5.17229 8.60884 5.14484 8.81145 5.1919C8.8574 5.20411 8.89912 5.22789 8.93227 5.26079C8.96543 5.29369 8.98881 5.33451 8.99999 5.379C9.01118 5.4235 9.00975 5.47005 8.99587 5.51384C8.98197 5.55763 8.95615 5.59706 8.92104 5.62803C8.85429 5.68602 8.78177 5.73758 8.70452 5.78196C8.46688 5.92721 8.26008 6.11437 8.09507 6.33353C7.98691 6.47535 7.91242 6.63821 7.87687 6.81062C7.84129 6.98303 7.84553 7.16082 7.88927 7.33152C7.94988 7.56424 8.0844 7.77313 8.27416 7.92926C8.86222 8.44236 9.6267 7.94721 9.49305 7.24684C9.29794 7.29303 9.12685 7.34177 8.9531 7.38281Z" fill="#3A3B7B"/>
<path d="M12.5458 8.83011C11.6771 9.34321 10.6881 8.83011 10.4716 7.75262C10.3139 6.98298 10.6132 5.90547 11.6611 5.49499C11.884 5.40954 12.1258 5.37953 12.364 5.40777C12.6503 5.45806 12.9129 5.59331 13.1148 5.79445C13.3166 5.99558 13.4477 6.25246 13.4894 6.52888C13.6658 7.44475 13.2648 8.4222 12.5458 8.83011ZM12.8479 7.10354C12.8476 6.89042 12.769 6.68419 12.626 6.52118C12.5495 6.42036 12.439 6.34811 12.3132 6.31676C12.1875 6.28542 12.0543 6.29691 11.9364 6.3493C11.4659 6.54427 11.1345 7.25234 11.2547 7.77315C11.2639 7.85487 11.2916 7.93369 11.3358 8.00409C11.3801 8.07448 11.4398 8.13475 11.5108 8.1807C11.5818 8.22662 11.6625 8.25712 11.747 8.27004C11.8316 8.28293 11.9181 8.27796 12.0005 8.25545C12.2492 8.17207 12.4645 8.01626 12.6164 7.80974C12.7683 7.60323 12.8492 7.35633 12.8479 7.10354Z" fill="#3A3B7B"/>
<path d="M14.3677 9.04556C14.3546 9.13946 14.3032 9.22451 14.2247 9.28201C14.1463 9.33948 14.0473 9.36472 13.9494 9.35214C13.8516 9.33955 13.763 9.29017 13.7031 9.21487C13.6432 9.13959 13.6169 9.04453 13.63 8.95064C13.6431 8.85674 13.6946 8.77169 13.773 8.71419C13.8515 8.65669 13.9505 8.63148 14.0483 8.64406C14.1462 8.65665 14.2348 8.70601 14.2947 8.78131C14.3546 8.85661 14.3809 8.95167 14.3677 9.04556ZM14.1352 5.58472C14.186 5.5102 14.2606 5.45346 14.3478 5.42294C14.435 5.39243 14.5301 5.38978 14.619 5.4154C14.7094 5.4371 14.7892 5.48794 14.8452 5.55939C14.9011 5.63085 14.9298 5.71859 14.9264 5.80792C14.9146 5.95121 14.8923 6.09352 14.8596 6.23379C14.7714 6.70841 14.6858 7.18301 14.5923 7.6525C14.5495 7.83979 14.4934 8.01937 14.4319 8.2092C14.4105 8.26855 14.3748 8.32218 14.3277 8.3657C14.2984 8.39845 14.261 8.42355 14.2189 8.43871C14.1768 8.4539 14.1314 8.45863 14.0869 8.45249C14.0424 8.44635 14.0002 8.42954 13.9642 8.40362C13.9283 8.37767 13.8998 8.34346 13.8813 8.30413C13.8495 8.23359 13.8322 8.15778 13.8305 8.08094C13.8305 7.76281 13.8305 7.44214 13.8519 7.12144C13.8882 6.66378 13.9597 6.20931 14.0657 5.76174C14.0782 5.70178 14.1017 5.64444 14.1352 5.59242V5.58472Z" fill="#3A3B7B"/>
<path fill-rule="evenodd" clip-rule="evenodd" d="M2.14479 11.1071C2.11323 11.1747 2.10457 11.2501 2.12 11.3227C2.13026 11.4183 2.15279 11.5124 2.18709 11.6027C2.22991 11.7134 2.27783 11.8228 2.33691 11.9576C2.35049 11.9886 2.36469 12.021 2.37955 12.0551C2.45923 12.2378 2.55919 12.4713 2.69254 12.8091C2.73028 12.9051 2.7638 13.0019 2.79755 13.0993C2.81118 13.1387 2.82487 13.1782 2.83887 13.2178C2.88908 13.3585 2.97546 13.485 3.08997 13.5852C3.13859 13.6403 3.20308 13.6804 3.2754 13.7005C3.34913 13.7209 3.42754 13.7196 3.50049 13.6968C3.57343 13.6739 3.6375 13.6304 3.68437 13.5721C3.73032 13.5149 3.75765 13.446 3.76296 13.374C3.79278 13.2337 3.7826 13.0883 3.73346 12.9531C3.65548 12.7285 3.56664 12.5037 3.46419 12.2838L3.46372 12.2828C3.29519 11.9387 3.12388 11.5971 2.94447 11.2552L2.94313 11.2528C2.8906 11.1638 2.82235 11.0842 2.74142 11.0176C2.68889 10.9581 2.61642 10.9181 2.53639 10.9042C2.45466 10.8901 2.37036 10.9043 2.29855 10.9444C2.23062 10.9816 2.17677 11.0386 2.14479 11.1071Z" fill="#3A3B7B"/>
<path fill-rule="evenodd" clip-rule="evenodd" d="M4.71868 10.2597C4.45443 10.194 4.17845 10.1844 3.90999 10.2316C3.70205 10.2513 3.49755 10.2973 3.35554 10.3885C3.28331 10.4349 3.22491 10.4945 3.19243 10.5703C3.15977 10.6464 3.1556 10.7335 3.18237 10.8306C3.23124 11.0083 3.2947 11.1811 3.35793 11.3534L3.36818 11.3813L3.36843 11.3819C3.55883 11.8824 3.75106 12.3812 3.94503 12.8783C3.96765 12.9566 3.99964 13.0322 4.04035 13.1034L4.04111 13.1048C4.09489 13.1933 4.16386 13.2725 4.24512 13.339C4.28576 13.3756 4.33602 13.4009 4.39052 13.4122C4.44555 13.4236 4.50278 13.4203 4.55598 13.4026C4.60919 13.3849 4.65631 13.3536 4.69222 13.3119C4.72755 13.271 4.75069 13.2217 4.75918 13.1692C4.79424 13.0265 4.78301 12.877 4.72697 12.7407C4.70949 12.6948 4.69577 12.6479 4.68131 12.5985C4.67649 12.5821 4.6716 12.5653 4.66645 12.5483C5.11045 12.3817 5.58289 12.1577 5.74902 11.6366C5.81407 11.4566 5.8195 11.2616 5.76453 11.0784C5.70952 10.895 5.59665 10.7325 5.44148 10.6132C5.23029 10.4462 4.9836 10.3255 4.71868 10.2597ZM3.98621 10.8988C3.99495 10.8964 4.00376 10.8941 4.01259 10.8921C4.30166 10.8484 4.5974 10.9066 4.84538 11.0557C4.95466 11.1286 4.99942 11.2097 5.00711 11.2876C5.01505 11.3679 4.98463 11.4549 4.92352 11.5386C4.80805 11.6966 4.59733 11.823 4.40699 11.8466C4.26823 11.5399 4.12732 11.2208 3.98621 10.8988Z" fill="#3A3B7B"/>
<path d="M6.48033 9.69825C6.79501 9.55876 7.18482 9.53466 7.48984 9.63274C7.56666 9.65421 7.63331 9.70067 7.67839 9.76415C7.72318 9.82724 7.74385 9.90327 7.73694 9.97927C7.73649 10.0286 7.72387 10.0771 7.70013 10.1209C7.67597 10.1655 7.64098 10.2039 7.59811 10.2327C7.55525 10.2616 7.50578 10.2801 7.45389 10.2867C7.40197 10.2934 7.34918 10.2879 7.29993 10.2708L7.29618 10.2695L7.29266 10.2678C7.26747 10.2551 7.2407 10.2456 7.21302 10.2394L7.21127 10.239C6.9967 10.1843 6.79429 10.2749 6.72036 10.3863C6.6851 10.4394 6.68073 10.493 6.7101 10.5418C6.74155 10.594 6.81868 10.6526 6.97477 10.6943C7.0177 10.7056 7.0617 10.7166 7.10634 10.7277C7.22976 10.7583 7.35803 10.7902 7.48206 10.8344L7.48253 10.8345C8.05474 11.0435 8.26782 11.4763 8.19487 11.8833C8.12271 12.2858 7.77245 12.6522 7.24572 12.7386C7.05406 12.7794 6.8546 12.7714 6.66708 12.7155C6.47909 12.6595 6.30964 12.5572 6.17557 12.4189L6.17207 12.4153C6.12975 12.3631 6.10128 12.3019 6.08866 12.2369C6.07705 12.1783 6.08317 12.1177 6.10626 12.0622C6.12921 12.0071 6.16804 11.9595 6.21814 11.9247C6.27107 11.8853 6.33486 11.8617 6.40164 11.8568C6.4682 11.8519 6.5348 11.8657 6.59324 11.8967C6.65161 11.9237 6.70591 11.9583 6.75464 11.9993L6.75556 12.0001C6.84177 12.0758 6.94608 12.0955 7.0461 12.0772C7.14758 12.0587 7.24301 12.0011 7.30439 11.9246C7.36536 11.8486 7.38984 11.7583 7.36079 11.6707C7.33156 11.5825 7.24366 11.4836 7.05054 11.4009C7.00006 11.3803 6.94772 11.3637 6.89327 11.3476C6.87858 11.3432 6.86365 11.3389 6.84854 11.3345C6.80828 11.3228 6.76686 11.3107 6.72624 11.2974C6.69826 11.2882 6.67051 11.2795 6.64303 11.2709C6.56791 11.2475 6.49467 11.2246 6.42419 11.1939C6.2708 11.1437 6.13827 11.0475 6.04634 10.9194C5.95403 10.7907 5.90758 10.6369 5.9139 10.4808C5.91439 10.1005 6.16396 9.8385 6.48033 9.69825Z" fill="#3A3B7B"/>
<path d="M10.4699 9.65801C10.4089 9.62941 10.3414 9.61583 10.2736 9.61849C10.2058 9.62118 10.1397 9.64001 10.0813 9.67335C10.0233 9.70645 9.97477 9.75279 9.93998 9.80826C9.90808 9.85498 9.886 9.90722 9.875 9.96208C9.86399 10.0169 9.86426 10.0732 9.87576 10.1279C9.88712 10.1982 9.89972 10.2665 9.91216 10.3339C9.93276 10.4455 9.9528 10.5545 9.96603 10.6657L9.96652 10.6685C9.99663 10.8428 10.0124 11.0192 10.0138 11.1959L10.0139 11.1984C10.0242 11.3892 9.95648 11.5763 9.82523 11.72L9.82315 11.7226C9.78044 11.7751 9.72335 11.8152 9.65823 11.8383C9.59313 11.8615 9.5226 11.8668 9.45453 11.8537C9.38645 11.8406 9.32352 11.8096 9.27277 11.7641C9.22202 11.7186 9.18541 11.6603 9.16714 11.596C9.12814 11.4605 9.10556 11.3212 9.09983 11.1807L9.16645 10.1627C9.16743 10.1494 9.16855 10.1358 9.1697 10.122C9.17223 10.0911 9.17483 10.0596 9.17591 10.0302C9.17748 9.98703 9.17613 9.94258 9.16564 9.90051C9.1549 9.85751 9.13448 9.8166 9.09826 9.78177C9.06239 9.74729 9.01397 9.72185 8.95304 9.70453C8.84286 9.67392 8.7497 9.67489 8.67207 9.70651C8.59439 9.73813 8.54118 9.79684 8.50352 9.86466C8.46615 9.93191 8.44214 10.0115 8.42398 10.0913C8.41051 10.1504 8.39968 10.2126 8.38939 10.2717C8.38583 10.2921 8.38235 10.3121 8.37884 10.3315L8.37875 10.3321C8.32369 10.6563 8.3073 10.9856 8.3299 11.3134C8.33411 11.4906 8.3726 11.6654 8.44344 11.8291C8.52336 12.0402 8.6681 12.2232 8.85858 12.3538C9.04945 12.4846 9.27723 12.5568 9.51175 12.5606C9.74628 12.5644 9.97648 12.4997 10.1719 12.3751C10.3669 12.2507 10.5181 12.0724 10.6054 11.8639C10.7275 11.5982 10.7848 11.3092 10.773 11.019C10.7658 10.8071 10.7538 10.5936 10.7419 10.3812C10.736 10.277 10.7302 10.1731 10.7249 10.0697C10.7223 9.9661 10.6867 9.86574 10.6229 9.7821C10.5834 9.72922 10.5308 9.68658 10.4699 9.65801Z" fill="#3A3B7B"/>
<path d="M12.6298 11.2541C12.6236 11.2617 12.6171 11.2695 12.6102 11.2776C12.5606 11.0028 12.5146 10.7281 12.4685 10.453C12.452 10.3543 12.4354 10.2551 12.4187 10.1563L12.4168 10.1453L12.4107 10.1357C12.3992 10.1178 12.3981 10.1002 12.3981 10.0627V10.0584L12.3974 10.0541C12.3849 9.97667 12.3484 9.9046 12.2927 9.84734C12.2371 9.79024 12.1649 9.7505 12.0855 9.73325C12.0062 9.71448 11.9229 9.71862 11.846 9.74515C11.7693 9.77163 11.7025 9.8192 11.6539 9.88191C11.6134 9.93004 11.5803 9.98342 11.5554 10.0405C11.499 10.1633 11.4422 10.2865 11.3851 10.41L11.3842 10.4122C11.2418 10.7205 11.0985 11.0309 10.9593 11.3438L10.9589 11.3448C10.8734 11.5477 10.8029 11.7614 10.7326 11.9745C10.7186 12.0171 10.7046 12.0596 10.6904 12.102C10.665 12.1692 10.654 12.2407 10.6578 12.3121C10.6531 12.376 10.6691 12.4398 10.7035 12.4947C10.7385 12.5509 10.7911 12.595 10.8536 12.621C10.9199 12.6489 10.9941 12.6548 11.0643 12.6378C11.1344 12.6209 11.1966 12.582 11.2412 12.5275C11.2981 12.4602 11.3471 12.3869 11.387 12.3092C11.5049 12.0778 11.6176 11.8435 11.7298 11.6103C11.7732 11.5201 11.8153 11.4393 11.8633 11.3513C11.8666 11.3621 11.8699 11.3727 11.8734 11.3833C11.9237 11.5958 12.0086 11.7993 12.1249 11.9863C12.1469 12.026 12.1776 12.0606 12.2148 12.0879C12.2524 12.1155 12.2959 12.1348 12.3422 12.1447C12.3884 12.1545 12.4363 12.1546 12.4826 12.1448C12.5288 12.1351 12.5724 12.1157 12.6101 12.0882L12.6847 12.0346L13.2635 11.5667L13.2293 11.776C13.1823 12.0638 13.1357 12.3493 13.0861 12.6347C13.0537 12.7612 13.0538 12.8934 13.0863 13.0199C13.1004 13.0911 13.1362 13.1566 13.1893 13.2081C13.2428 13.2601 13.3114 13.2954 13.3861 13.3095C13.4608 13.3235 13.5382 13.3157 13.6082 13.2871C13.6772 13.2588 13.7359 13.2116 13.7769 13.1514C13.8723 13.0378 13.9317 12.9002 13.948 12.755C13.9726 12.55 14.0004 12.3422 14.0281 12.1345C14.0601 11.8951 14.0921 11.6557 14.1191 11.4209L14.1192 11.4202C14.1452 11.1632 14.1578 10.9052 14.1569 10.647C14.1626 10.5654 14.1415 10.4841 14.0964 10.4146C14.0511 10.3449 13.9841 10.2907 13.9049 10.2597C13.8224 10.2237 13.7302 10.2141 13.6417 10.2323C13.5537 10.2503 13.4741 10.2948 13.4144 10.3593C13.3076 10.4541 13.2075 10.5555 13.1146 10.6629L13.1139 10.6636C13.0125 10.7849 12.9118 10.9086 12.8117 11.0315C12.7508 11.1062 12.6901 11.1808 12.6298 11.2541Z" fill="#3A3B7B"/>
</g>
<defs>
<clipPath id="clip0_212_1131">
<rect width="15.6917" height="9.68213" fill="white" transform="translate(0.704834 4.03271)"/>
</clipPath>
</defs>
</svg>
